<svg width="36" height="12" viewBox="0 0 36 12" fill="none" xmlns="http://www.w3.org/2000/svg">
<path d="M7.57942 11.047C6.80326 11.6822 5.8069 12 4.59036 12C3.69861 12 2.92793 11.8815 2.27769 11.6436C1.62744 11.4062 1.03498 11.0055 0.5 10.442L1.91576 8.95028C2.54534 9.61326 3.44193 9.94475 4.60618 9.94475C5.2561 9.94475 5.7517 9.81756 6.09264 9.56353C6.43391 9.30915 6.60405 8.94487 6.60405 8.46961C6.60405 8.06101 6.48879 7.73493 6.25795 7.49171C6.05874 7.29282 5.72296 7.16022 5.25126 7.09392L3.91396 6.87845C2.9699 6.73469 2.24637 6.4086 1.7427 5.90055C1.20804 5.34819 0.940386 4.57459 0.940386 3.58011C0.940386 2.50817 1.29166 1.64377 1.99453 0.986188C2.69741 0.328609 3.6463 0 4.84219 0C6.35222 0 7.55876 0.458684 8.46052 1.37569L7.07608 2.81768C6.55175 2.27612 5.78592 2.00552 4.77923 2.00552C4.22294 2.00552 3.79869 2.14641 3.50489 2.42818C3.21141 2.70994 3.0645 3.0663 3.0645 3.49724C3.0645 3.85071 3.16943 4.13248 3.37897 4.34254C3.62015 4.57458 3.9611 4.72376 4.40148 4.79005L5.73878 5.00552C6.69349 5.14929 7.40637 5.45844 7.8784 5.9337C8.45535 6.49724 8.74367 7.32597 8.74367 8.41989C8.74367 9.53579 8.35591 10.4117 7.57942 11.047Z" fill="#666C7B"/>
<path fill-rule="evenodd" clip-rule="evenodd" d="M16.3109 10.9392C15.6604 11.6465 14.8112 12 13.7623 12C12.7239 12 11.8796 11.6465 11.2294 10.9392C10.8804 10.5555 10.6285 10.0852 10.4978 9.57182C10.3667 9.05801 10.3012 8.3925 10.3012 7.57458C10.3012 6.75666 10.3667 6.09368 10.4978 5.58563C10.6289 5.07723 10.8726 4.62431 11.2294 4.22652C11.8796 3.51922 12.7239 3.16575 13.7623 3.16575C14.8319 3.16575 15.6817 3.51922 16.3109 4.22652C16.6677 4.62431 16.9115 5.07759 17.0425 5.58563C17.1733 6.09368 17.2392 6.75666 17.2392 7.57458C17.2392 8.40331 17.1733 9.07458 17.0425 9.5884C16.9137 10.0978 16.6616 10.5633 16.3109 10.9392ZM12.8182 9.67956C13.0594 9.93358 13.3742 10.0608 13.7623 10.0608C14.161 10.0608 14.481 9.93358 14.7218 9.67956C15.0366 9.35923 15.1938 8.65734 15.1938 7.57458C15.1938 6.50264 15.0366 5.80687 14.7218 5.48619C14.4803 5.23216 14.1607 5.10497 13.7623 5.10497C13.3742 5.10497 13.0594 5.23216 12.8182 5.48619C12.5037 5.80651 12.3465 6.50264 12.3465 7.57458C12.3465 8.65734 12.5037 9.35887 12.8182 9.67956Z" fill="#666C7B"/>
<path d="M22.6668 10.0773V11.9006H21.5026C20.7158 11.9006 20.1204 11.6577 19.7168 11.1713C19.3129 10.6848 19.1111 10.1047 19.1111 9.43094V0.099447H21.1565V9.29834C21.1565 9.81792 21.398 10.0773 21.88 10.0773H22.6668Z" fill="#666C7B"/>
<path d="M26.69 3.51381V11.9006H24.6447V3.51381H26.69Z" fill="#666C7B"/>
<path fill-rule="evenodd" clip-rule="evenodd" d="M33.5021 11.0884C32.9881 11.6962 32.3114 12 31.4726 12C30.6125 12 29.9464 11.7402 29.4747 11.221C29.118 10.8344 28.8874 10.3537 28.7825 9.779C28.6773 9.2043 28.6249 8.46961 28.6249 7.57458C28.6249 6.69073 28.6773 5.96145 28.7825 5.38674C28.8874 4.81203 29.118 4.33137 29.4747 3.94475C29.9464 3.42517 30.6073 3.16575 31.4568 3.16575C32.2959 3.16575 32.962 3.45292 33.455 4.02762V0.099447H35.5V11.9006H33.5021V11.0884ZM31.3231 9.87845C31.5172 9.99988 31.7609 10.0608 32.0547 10.0608C32.3485 10.0608 32.5923 9.99988 32.7863 9.87845C32.9801 9.75666 33.1244 9.5747 33.219 9.33149C33.3142 9.08462 33.3778 8.82541 33.4075 8.56077C33.4392 8.29017 33.455 7.9612 33.455 7.57458C33.455 6.76783 33.3633 6.15458 33.1796 5.73481C32.9959 5.31504 32.621 5.10497 32.0547 5.10497C31.7609 5.10497 31.5172 5.16586 31.3231 5.28729C31.1294 5.40908 30.9873 5.59104 30.8982 5.83425C30.8094 6.07699 30.7484 6.33023 30.7174 6.5884C30.6861 6.84819 30.6703 7.17679 30.6703 7.57458C30.6703 7.97237 30.6861 8.30134 30.7174 8.56077C30.7491 8.82151 30.8098 9.07741 30.8982 9.3232C30.9877 9.57182 31.1294 9.75702 31.3231 9.87845Z" fill="#666C7B"/>
<path d="M26.7058 0.0332072V1.79011H24.6134V0.0332072H26.7058Z" fill="#666C7B"/>
</svg>
